<?xml version="1.0" encoding="UTF-8" standalone="no"?>
<!-- Created with Inkscape (http://www.inkscape.org/) -->

<svg
   xmlns:dc="http://purl.org/dc/elements/1.1/"
   xmlns:cc="http://creativecommons.org/ns#"
   xmlns:rdf="http://www.w3.org/1999/02/22-rdf-syntax-ns#"
   xmlns:svg="http://www.w3.org/2000/svg"
   xmlns="http://www.w3.org/2000/svg"
   xmlns:sodipodi="http://sodipodi.sourceforge.net/DTD/sodipodi-0.dtd"
   xmlns:inkscape="http://www.inkscape.org/namespaces/inkscape"
   width="277.70081"
   height="150.51965"
   viewBox="0 0 73.475003 39.82499"
   version="1.1"
   id="svg8"
   inkscape:version="0.92.2 (5c3e80d, 2017-08-06)"
   sodipodi:docname="Logo_di_cunto_vetor_286x156.svg"
   inkscape:export-filename="C:\Users\FAMILIA-PC\bitmap.png"
   inkscape:export-xdpi="99.167343"
   inkscape:export-ydpi="99.167343">
  <defs
     id="defs2" />
  <sodipodi:namedview
     id="base"
     pagecolor="#ffffff"
     bordercolor="#666666"
     borderopacity="1.0"
     inkscape:pageopacity="0.0"
     inkscape:pageshadow="2"
     inkscape:zoom="1.4"
     inkscape:cx="405.53341"
     inkscape:cy="198.47165"
     inkscape:document-units="mm"
     inkscape:current-layer="layer1"
     showgrid="false"
     units="px"
     inkscape:window-width="1680"
     inkscape:window-height="987"
     inkscape:window-x="-8"
     inkscape:window-y="-8"
     inkscape:window-maximized="1" />
  <metadata
     id="metadata5">
    <rdf:RDF>
      <cc:Work
         rdf:about="">
        <dc:format>image/svg+xml</dc:format>
        <dc:type
           rdf:resource="http://purl.org/dc/dcmitype/StillImage" />
        <dc:title></dc:title>
      </cc:Work>
    </rdf:RDF>
  </metadata>
  <g
     inkscape:label="Camada 1"
     inkscape:groupmode="layer"
     id="layer1"
     transform="translate(0,-257.17499)">
    <g
       id="g45"
       transform="matrix(1.1762334,0,0,1.4992861,-127.59529,39.401102)">
      <path
         style="fill:#eed0a3;stroke-width:0.26458335"
         d="m 136.94077,171.3898 c -1.28084,-0.59115 -2.08692,-1.42876 -2.6332,-2.73619 -0.74806,-1.79036 -0.32642,-3.55288 0.79861,-3.33825 0.63026,0.12025 0.84528,1.2222 0.28076,1.43883 -0.87754,0.33674 0.66206,2.75578 2.27889,3.58063 1.45095,0.74021 3.71486,0.73953 5.16751,-0.002 1.53566,-0.78344 1.6117,-1.32791 0.36023,-2.57939 -1.20618,-1.20618 -1.69597,-2.6231 -1.33808,-3.87098 0.34294,-1.19575 0.35186,-1.17702 -0.73095,-1.53438 -1.47301,-0.48614 -6.29131,-0.14438 -9.41971,0.66813 -1.42456,0.36999 -4.34159,1.21884 -6.48229,1.88633 -5.79911,1.80826 -9.03454,2.48382 -11.90897,2.48662 -3.571,0.003 -4.81551,-0.80273 -4.81551,-3.11954 0,-1.40464 0.93284,-2.48152 2.57609,-2.97385 1.55709,-0.46651 2.78403,-0.15059 3.76814,0.97026 0.66156,0.75347 0.81218,1.13817 0.74782,1.91003 -0.0643,0.77088 -0.2011,0.98365 -0.6759,1.05108 -0.61415,0.0872 -0.85558,-0.55392 -0.33073,-0.8783 0.49403,-0.30532 0.26721,-0.97633 -0.635,-1.87854 -0.75717,-0.75717 -1.08854,-0.89958 -2.09315,-0.89958 -1.00798,0 -1.30006,0.12657 -1.87854,0.81405 -1.20372,1.43054 -0.7952,3.34592 0.90252,4.23158 0.99257,0.5178 4.80647,0.38094 7.55772,-0.27122 1.30029,-0.30822 5.04307,-1.43941 8.31728,-2.51376 3.27422,-1.07436 6.94855,-2.14157 8.16517,-2.37159 2.64338,-0.49978 6.2119,-0.52613 7.31296,-0.054 0.68185,0.29237 0.94296,0.27286 1.85208,-0.13841 2.29547,-1.03842 5.75541,-0.57156 13.13096,1.77181 7.29306,2.31716 10.90273,2.72555 12.32022,1.39389 0.77758,-0.7305 0.81714,-2.12631 0.0811,-2.86234 -1.30087,-1.30087 -3.94269,-0.10081 -3.56488,1.61936 0.15244,0.69405 0.10759,0.79748 -0.31133,0.71797 -0.83037,-0.15761 -0.76122,-1.37909 0.13484,-2.38196 0.67196,-0.75205 0.96262,-0.88141 1.98047,-0.88141 2.15813,0 3.58956,1.78354 2.78243,3.46687 -0.51192,1.06766 -1.40459,1.41956 -3.61238,1.42402 -2.34463,0.005 -4.69986,-0.46375 -9.35226,-1.86029 -6.61561,-1.98587 -10.60086,-2.53114 -12.54929,-1.71703 l -0.92749,0.38752 0.73755,1.11426 c 0.76895,1.1617 0.99707,3.08484 0.52128,4.39454 -0.19934,0.54872 -0.14003,0.59532 0.75772,0.59532 1.99521,0 4.44168,-2.24443 3.57922,-3.28363 -0.40981,-0.4938 -0.19643,-1.21429 0.35963,-1.21429 0.21773,0 0.53002,0.25066 0.69398,0.55703 0.66126,1.23557 -0.4623,3.47454 -2.19259,4.36931 -0.812,0.41991 -2.85749,0.55508 -3.39284,0.22422 -0.16949,-0.10476 -0.77744,0.28251 -1.39947,0.89146 -0.60489,0.59218 -1.54246,1.26091 -2.08349,1.48608 -1.3247,0.55132 -3.53594,0.50987 -4.83715,-0.0907 z m 7.76256,-4.14576 c 0.12309,-1.05537 -0.37024,-2.57526 -1.02955,-3.17193 -0.47001,-0.42535 -0.58447,-0.44083 -0.80774,-0.10922 -0.45644,0.67789 -0.10996,2.85139 0.56991,3.57507 0.75809,0.80695 1.14957,0.71616 1.26738,-0.29392 z m -21.58704,-7.25752 c -0.80024,-0.48792 -0.85989,-0.62399 -0.85989,-1.96134 0,-0.91274 -0.12067,-1.47844 -0.33073,-1.55051 -0.1819,-0.0624 -0.86651,0.35661 -1.52136,0.93114 -2.03876,1.78873 -5.2899,3.05257 -6.94971,2.70161 -1.28782,-0.2723 -2.47455,-1.09392 -2.83422,-1.96225 -0.40337,-0.97381 -0.18645,-1.33655 0.79926,-1.33655 0.85621,0 1.27866,-0.66839 3.07607,-4.86694 0.80769,-1.88666 0.8552,-2.13193 0.491,-2.53437 -0.59616,-0.65876 -0.49301,-1.23138 0.32437,-1.80062 1.85058,-1.28877 5.13486,-1.52806 7.15769,-0.52151 2.55093,1.26933 2.85218,3.73923 0.84256,6.90806 -1.10732,1.74607 -0.56102,1.31417 0.96282,-0.7612 0.69262,-0.9433 1.36015,-1.71509 1.4834,-1.71509 0.56286,0 2.31968,1.11063 2.31968,1.46646 0,0.21856 -0.47758,1.34723 -1.06129,2.50817 -1.10156,2.1909 -1.11847,2.51087 -0.0812,1.5364 0.54549,-0.51246 0.68283,-0.53616 1.27383,-0.21987 0.36432,0.19498 0.66241,0.48852 0.66241,0.65231 0,0.33155 -2.11184,2.01182 -3.32106,2.64238 -1.02064,0.53222 -1.39971,0.51411 -2.43363,-0.11628 z m -4.87039,-4.20651 c 1.09315,-0.77839 2.6392,-2.55614 3.14449,-3.61575 0.78428,-1.64465 -0.034,-2.79572 -1.69159,-2.37968 -0.63555,0.15951 -1.70969,2.0904 -3.34136,6.00647 l -0.40283,0.9668 0.76858,-0.22042 c 0.42272,-0.12124 1.10794,-0.46207 1.52271,-0.75742 z m 15.47127,4.23104 c -1.46352,-0.68092 -1.93757,-1.64353 -1.92894,-3.9169 0.0126,-3.31193 1.81539,-7.21763 4.44626,-9.63257 1.13982,-1.04627 1.59217,-1.29463 2.35801,-1.29463 1.92176,0 4.56598,2.3525 4.56598,4.06226 0,0.39959 -0.18165,1.0778 -0.40367,1.50713 -0.38104,0.73686 -0.37445,0.78061 0.11754,0.78061 0.28666,0 0.85527,0.28832 1.26357,0.64071 l 0.74235,0.6407 -1.13781,2.30048 c -0.62579,1.26526 -1.08909,2.34919 -1.02955,2.40873 0.20199,0.20199 2.23724,-2.67498 3.06809,-4.33697 0.71516,-1.43057 0.92432,-1.65251 1.55048,-1.64523 0.80929,0.009 1.64984,0.53931 1.64984,1.0401 0,0.18079 -0.47442,1.35829 -1.05426,2.61666 l -1.05426,2.28795 0.81287,-0.92604 c 0.44708,-0.50933 1.34937,-1.84032 2.00509,-2.95777 0.65572,-1.11745 1.37377,-2.1014 1.59567,-2.18655 0.22189,-0.0851 0.7594,0.0228 1.19445,0.23979 0.55679,0.27777 0.93405,0.31804 1.27415,0.13602 1.28237,-0.6863 3.42837,0.2016 3.42837,1.41847 0,0.31917 -0.48472,1.41186 -1.07716,2.42819 l -1.07716,1.84789 0.96821,-0.92604 c 0.53251,-0.50933 1.32713,-1.37535 1.76581,-1.9245 0.65073,-0.81459 0.73795,-1.07034 0.47363,-1.38882 -0.25573,-0.30814 -0.2547,-0.55763 0.005,-1.18436 0.3158,-0.76241 0.53817,-0.90677 1.25434,-0.81432 0.18052,0.0233 0.64985,-0.61347 1.04299,-1.41504 0.39312,-0.80158 0.87717,-1.51973 1.07565,-1.59589 0.55186,-0.21177 2.18337,0.56829 2.18337,1.04392 0,0.23151 -0.24237,0.89601 -0.5386,1.47666 -0.46629,0.91401 -0.49006,1.12505 -0.17702,1.57198 0.35097,0.50107 0.3836,0.49325 1.11141,-0.26642 0.41241,-0.43046 1.14238,-0.9122 1.62215,-1.07054 1.80704,-0.59638 3.63381,1.18623 3.15807,3.08171 -0.15127,0.60272 -0.11747,0.63532 0.38171,0.36816 0.56788,-0.30391 1.58604,-0.13443 1.58604,0.264 0,0.40738 -1.37879,1.32429 -1.99137,1.32429 -0.40817,0 -0.64709,0.19919 -0.7551,0.62954 -0.24824,0.98907 -2.45374,3.26799 -3.49543,3.61178 -1.04421,0.34462 -2.11572,0.0497 -2.87749,-0.79209 -0.40865,-0.45155 -0.46686,-0.45054 -1.39799,0.0242 -1.21997,0.62198 -1.43311,0.61851 -2.73267,-0.0445 l -1.05813,-0.53982 -0.78089,0.55605 c -1.22333,0.87108 -2.3473,0.93832 -3.43176,0.2053 -0.50932,-0.34426 -0.9624,-0.87687 -1.00684,-1.18356 -0.0444,-0.30669 0.4162,-1.37416 1.02365,-2.37215 0.60745,-0.998 1.16822,-1.92224 1.24616,-2.05386 0.0779,-0.13163 0.0178,-0.16275 -0.1336,-0.0692 -0.15142,0.0936 -1.01139,1.41384 -1.91103,2.9339 -2.04317,3.45216 -2.14571,3.54381 -3.33209,2.97806 -0.836,-0.39866 -0.98744,-0.4002 -1.78857,-0.0182 -0.79701,0.38007 -0.9645,0.38008 -1.87379,1.5e-4 -0.88835,-0.37117 -1.08232,-0.3739 -1.75746,-0.0248 -1.11164,0.57485 -2.23413,0.48624 -3.08228,-0.24331 l -0.73911,-0.63576 -1.06158,0.62209 c -1.54107,0.90306 -2.94087,1.03773 -4.28519,0.41227 z m 4.6374,-3.91877 2.24749,-2.30384 -0.79383,-0.2057 c -0.43661,-0.11314 -1.01921,-0.45475 -1.29468,-0.75914 -0.56015,-0.61896 -0.61635,-0.46243 1.2062,-3.35997 1.07647,-1.7114 0.8067,-2.1637 -0.43228,-0.7248 -2.07907,2.41455 -4.06649,6.57475 -4.06649,8.51228 0,1.69806 0.54216,1.49756 3.13359,-1.15883 z m 27.31601,-0.1967 c 0.79424,-1.38469 1.00187,-2.38294 0.45793,-2.20162 -0.4187,0.13957 -2.0608,3.11582 -2.06479,3.74237 -0.005,0.74148 0.66754,0.0969 1.60686,-1.54075 z m -5.10985,1.37606 c 0.14801,-0.1819 0.64079,-0.96434 1.09505,-1.73876 0.77634,-1.32349 0.79249,-1.40292 0.26902,-1.32292 -0.69034,0.10551 -2.64927,3.39241 -2.0218,3.39241 0.21373,0 0.50971,-0.14883 0.65773,-0.33073 z m -34.03234,-6.04005 c -0.67841,-0.63203 -0.57664,-1.42285 0.27823,-2.16203 0.73438,-0.63501 1.44191,-0.58036 2.19154,0.16927 0.73001,0.73001 0.64689,1.54741 -0.21903,2.15393 -0.77278,0.54128 -1.55704,0.48512 -2.25074,-0.16117 z"
         id="path59"
         inkscape:connector-curvature="0" />
      <path
         style="fill:#ecc27e;stroke-width:0.26458335"
         d="m 136.78978,171.16227 c -1.80062,-0.91204 -2.61643,-2.22 -2.62278,-4.20503 -0.005,-1.40408 0.33658,-1.83911 1.18627,-1.51305 0.52655,0.20206 0.50717,1.06599 -0.0307,1.36698 -0.3918,0.21926 -0.38934,0.31978 0.0294,1.20216 1.28987,2.7182 4.72999,3.80861 7.61261,2.41296 0.80132,-0.38796 0.82192,-0.38642 0.32617,0.0245 -1.89121,1.56738 -4.29243,1.83019 -6.50099,0.71154 z m 7.36148,-1.78578 c 0.22725,-0.41067 0.20269,-0.62848 -0.10979,-0.97378 -0.3663,-0.40476 -0.35272,-0.43176 0.15099,-0.30004 0.50603,0.13233 0.55315,0.0343 0.54917,-1.14288 -0.004,-1.28609 -0.8462,-3.2515 -1.48217,-3.46031 -0.5374,-0.17645 -0.86055,1.8644 -0.47348,2.99031 0.4325,1.25806 0.32884,1.40545 -0.31467,0.4474 -0.51727,-0.77012 -0.68147,-2.99399 -0.28191,-3.81821 0.54987,-1.13431 -4.32021,-1.49554 -8.52204,-0.63211 -1.2183,0.25034 -4.93854,1.27633 -8.26722,2.27996 -3.32867,1.00364 -6.55861,1.88717 -7.17763,1.96341 -0.66394,0.0818 -0.14897,-0.13616 1.25576,-0.53142 1.30969,-0.36851 4.52438,-1.37941 7.14375,-2.24645 7.91266,-2.61915 12.24931,-3.35175 15.17177,-2.56301 1.23264,0.33268 1.51176,0.33242 2.18215,-0.002 2.06257,-1.02894 6.17645,-0.56437 12.11568,1.3682 1.98182,0.64487 4.43676,1.40763 5.4554,1.69503 1.01865,0.2874 1.65325,0.531 1.41023,0.54134 -0.24303,0.0103 -1.9099,-0.41096 -3.70417,-0.9362 -6.83844,-2.00185 -8.03427,-2.27187 -10.67064,-2.40947 -2.07203,-0.10815 -2.86661,-0.0458 -3.66383,0.28754 l -1.01799,0.42564 0.6803,0.8085 c 0.93893,1.11585 1.29716,2.58468 0.97743,4.00764 -0.30969,1.37825 -0.11084,1.63022 1.10634,1.40187 2.03473,-0.38172 3.81103,-2.27534 3.14092,-3.34836 -0.45805,-0.73346 -0.35774,-1.01213 0.36433,-1.01213 0.60195,0 0.66137,0.10116 0.66047,1.12448 -0.002,2.39204 -1.54828,3.76458 -4.25947,3.7811 -1.14531,0.007 -1.93592,0.14699 -2.24101,0.39687 -0.43243,0.35417 -0.4472,0.34236 -0.17867,-0.14291 z m -33.27195,-2.15706 c -2.59458,-0.85479 -3.23324,-3.55332 -1.2258,-5.17941 0.84105,-0.68127 1.02326,-0.56311 0.31317,0.2031 -0.8466,0.91349 -1.02108,1.79547 -0.56916,2.87707 0.55297,1.32344 1.50769,1.82697 3.83506,2.02268 l 2.01236,0.16922 -1.98438,0.019 c -1.0914,0.0105 -2.16297,-0.0398 -2.38125,-0.1117 z m 4.82865,-0.27444 c 0.25466,-0.0665 0.67138,-0.0665 0.92604,0 0.25466,0.0666 0.0463,0.121 -0.46302,0.121 -0.50932,0 -0.71768,-0.0545 -0.46302,-0.121 z m 51.26302,-1.63403 c 2.08746,-0.21585 2.76763,-0.5683 3.13601,-1.62504 0.30492,-0.87471 0.18638,-1.45301 -0.44941,-2.19233 -0.37142,-0.43191 -0.36716,-0.45875 0.0476,-0.2996 1.15978,0.44505 1.33503,2.5878 0.2918,3.56786 -0.58339,0.54807 -0.96251,0.64341 -2.71198,0.68203 l -2.03378,0.0449 z m -52.65208,-0.43255 c 0,-0.21828 0.11906,-0.39687 0.26458,-0.39687 0.35838,0 0.33303,-0.61863 -0.0608,-1.4829 -0.18738,-0.41125 -0.77641,-0.91896 -1.38906,-1.19726 l -1.06372,-0.48322 0.82421,-0.006 c 1.53315,-0.0108 3.00816,1.8307 2.6403,3.29634 -0.18372,0.73202 -1.21555,0.96098 -1.21555,0.26972 z m 49.41094,0.22165 c 0.1819,-0.0734 0.47955,-0.0734 0.66146,0 0.1819,0.0734 0.0331,0.13345 -0.33073,0.13345 -0.36381,0 -0.51263,-0.06 -0.33073,-0.13345 z m 1.65364,-2.08576 c 0,-1.11073 0.97464,-2.24588 1.90621,-2.22016 0.57211,0.0158 0.57664,0.0293 0.0782,0.23336 -0.9811,0.40155 -1.96469,1.94853 -1.44366,2.27055 0.39026,0.24119 0.29943,0.65432 -0.14384,0.65432 -0.27815,0 -0.39688,-0.28062 -0.39688,-0.93807 z m -42.46158,-3.33935 c -0.66222,-0.52091 -0.71518,-0.68797 -0.57997,-1.82958 0.20407,-1.72308 -0.29395,-1.86392 -1.89107,-0.53478 -1.9175,1.59575 -3.88262,2.46841 -5.86738,2.60554 -1.49033,0.10297 -1.84283,0.0349 -2.64198,-0.5101 -1.58204,-1.07893 -2.00157,-2.7881 -0.61952,-2.5239 0.86755,0.16584 1.31962,-0.47867 2.84996,-4.06318 1.01038,-2.3666 1.21214,-3.07126 0.97362,-3.40039 -0.63647,-0.87823 -0.63781,-1.14958 -0.008,-1.63198 1.69342,-1.29722 5.06824,-1.68202 6.98662,-0.79664 1.74606,0.80586 2.38453,1.69587 2.36167,3.29209 -0.019,1.32954 -0.86136,3.45555 -1.90444,4.8068 -0.22467,0.29104 0.0568,0.043 0.62548,-0.55113 0.56867,-0.59416 1.36148,-1.51066 1.76179,-2.03667 0.65884,-0.86573 0.79679,-0.93161 1.45521,-0.69501 0.40005,0.14376 0.9615,0.43739 1.24767,0.65252 0.50811,0.38198 0.49112,0.44987 -0.72587,2.89978 -0.68539,1.37975 -1.17947,2.50863 -1.09796,2.50863 0.0815,0 0.53465,-0.29474 1.00696,-0.65499 0.80378,-0.61308 0.89702,-0.62818 1.45687,-0.23605 l 0.59812,0.41894 -0.59936,0.638 c -0.99633,1.06054 -3.00769,2.21535 -3.85852,2.21535 -0.44058,0 -1.129,-0.25796 -1.52983,-0.57325 z m -4.99784,-3.64915 c 2.03614,-1.16783 3.92153,-3.80316 3.7529,-5.24567 -0.0508,-0.43471 -0.35425,-0.85381 -0.7975,-1.10148 -1.16349,-0.65013 -1.9525,0.17298 -3.56451,3.71857 -0.75381,1.65799 -1.37911,3.10382 -1.38956,3.21296 -0.0371,0.38718 0.66017,0.18332 1.99867,-0.58438 z m 15.42167,3.61915 c -1.16134,-0.78263 -1.55563,-1.60226 -1.56043,-3.24376 -0.0105,-3.59595 2.49897,-8.64014 5.24533,-10.54337 1.57828,-1.09375 2.75743,-0.90234 4.49678,0.72994 1.6024,1.50377 2.02278,2.92929 1.20721,4.09368 -0.23313,0.33283 -0.38195,0.63075 -0.33073,0.66203 0.0512,0.0313 0.54329,0.26154 1.09348,0.51167 0.55018,0.25013 1.0639,0.62043 1.14159,0.82289 0.0777,0.20247 -0.4162,1.39914 -1.09754,2.65927 -0.68134,1.26013 -1.17756,2.35239 -1.1027,2.42725 0.23525,0.23525 2.11726,-2.20743 3.23742,-4.20188 1.171,-2.08497 1.68809,-2.37581 2.75226,-1.54803 l 0.63971,0.49761 -1.14668,2.41292 c -0.63067,1.3271 -1.0873,2.47229 -1.01473,2.54486 0.20486,0.20486 2.30402,-2.73723 3.162,-4.43172 0.81407,-1.60777 1.42326,-1.89446 2.64089,-1.2428 0.37524,0.20082 0.78119,0.18429 1.45463,-0.0592 0.82338,-0.29774 1.0498,-0.27587 1.90952,0.18446 1.32075,0.70719 1.35172,1.36832 0.15777,3.36755 -0.54283,0.90894 -1.04405,1.77168 -1.11382,1.9172 -0.0698,0.14553 0.60449,-0.44641 1.49837,-1.3154 1.76167,-1.71263 2.10576,-2.33705 1.61423,-2.9293 -0.42731,-0.51489 0.29337,-1.63696 1.12741,-1.75531 0.41477,-0.0589 0.83319,-0.51713 1.34622,-1.47446 0.78689,-1.46835 1.18211,-1.64519 2.41816,-1.08201 0.83991,0.38268 0.84076,0.65067 0.007,2.1427 -0.58045,1.03854 -0.61244,1.21446 -0.24634,1.35494 0.30015,0.11518 0.36648,0.33242 0.23145,0.75806 -0.15229,0.48008 -0.0463,0.4268 0.54244,-0.27278 1.39932,-1.66266 3.1905,-2.1018 4.46945,-1.09577 0.58462,0.45986 0.69714,0.7588 0.69714,1.85208 0,1.3321 0.10815,1.47827 0.77949,1.05354 0.23535,-0.1489 0.5729,-0.14024 0.87698,0.0225 0.67743,0.36255 0.18982,0.92264 -1.15368,1.32517 -0.56206,0.1684 -1.08791,0.51405 -1.16854,0.76812 -0.27418,0.86385 -1.72852,2.64799 -2.5834,3.16923 -0.46854,0.28568 -1.18523,0.51987 -1.59264,0.52041 -0.8392,0.001 -2.20293,-0.62796 -2.35586,-1.08675 -0.0717,-0.21521 -0.34777,-0.17788 -0.93681,0.12673 -1.11457,0.57637 -2.51376,0.54608 -3.27571,-0.0709 -0.6107,-0.49451 -0.63288,-0.4942 -1.35329,0.0188 -1.71907,1.22408 -3.81295,1.02765 -4.47234,-0.41955 -0.2707,-0.59412 -0.15723,-0.91143 1.04568,-2.92416 0.74213,-1.24175 1.23928,-2.25773 1.10477,-2.25773 -0.13451,0 -1.09003,1.42875 -2.12337,3.175 -1.99207,3.3664 -2.36289,3.65379 -3.59819,2.78855 -0.47886,-0.3354 -0.61768,-0.33651 -1.05106,-0.008 -0.64075,0.4851 -1.97515,0.4993 -2.61986,0.0279 -0.43612,-0.3189 -0.64649,-0.29673 -1.60545,0.16917 -1.25985,0.61208 -2.19215,0.4974 -3.0668,-0.37725 -0.49037,-0.49038 -0.63216,-0.51713 -1.11775,-0.21093 -2.01812,1.27258 -3.76263,1.42238 -5.20951,0.44733 z m 4.80815,-3.29935 c 2.41318,-2.48104 2.87965,-3.05831 2.28778,-2.83119 -0.66781,0.25627 -2.0458,-0.60405 -2.04484,-1.27665 4.7e-4,-0.32368 0.47634,-1.30289 1.05749,-2.17602 1.65868,-2.49198 1.32967,-3.13274 -0.50944,-0.99218 -1.97411,2.29767 -4.21753,7.31957 -3.87663,8.67782 0.27135,1.08117 0.98668,0.7562 3.08564,-1.40178 z m 22.29406,0.92604 c 0.35762,-0.32742 0.97089,-1.16086 1.36281,-1.85208 0.67276,-1.18651 0.68342,-1.25677 0.19069,-1.25677 -0.61085,0 -0.75179,0.16303 -1.88708,2.18281 -0.89385,1.59024 -0.76936,1.93585 0.33358,0.92604 z m 4.66045,-0.39687 c 0.72729,-0.87814 1.68843,-3.19996 1.43945,-3.47729 -0.33465,-0.37275 -2.05114,2.155 -2.48088,3.65343 -0.31243,1.08939 0.0431,1.02927 1.04143,-0.17614 z m -38.31031,-5.51569 c -0.80045,-0.56066 -0.66807,-1.6051 0.29407,-2.32032 0.69492,-0.51658 0.77374,-0.5226 1.45521,-0.11123 0.9379,0.56616 1.05263,1.41655 0.2993,2.21844 -0.69789,0.74287 -1.21539,0.7967 -2.04858,0.21311 z"
         id="path57"
         inkscape:connector-curvature="0" />
      <path
         style="fill:#e6b15a;stroke-width:0.26458335"
         d="m 137.50626,171.50231 c -2.0015,-0.71352 -3.34361,-2.50442 -3.34361,-4.4617 0,-1.25684 0.44882,-1.88108 1.15709,-1.60929 0.56052,0.21509 0.55359,1.07165 -0.0112,1.38774 -0.38006,0.21269 -0.39603,0.35726 -0.11458,1.03675 1.05252,2.54102 4.46949,3.90762 7.11315,2.84487 l 0.98369,-0.39545 -0.61648,0.52115 c -1.22205,1.03305 -3.37599,1.31477 -5.16803,0.67593 z m 6.68358,-2.15159 c 0.18929,-0.39362 0.17431,-0.64891 -0.0515,-0.8788 -0.24885,-0.25328 -0.23171,-0.30545 0.0785,-0.23897 0.70402,0.15086 0.53699,-2.89248 -0.21679,-3.94985 -0.33715,-0.47294 -0.71936,-0.8599 -0.84937,-0.8599 -0.42673,0 -0.79415,1.95921 -0.53613,2.85887 0.30843,1.07542 0.1491,1.07876 -0.40436,0.008 -0.41498,-0.80248 -0.41081,-2.12095 0.01,-3.16027 0.28845,-0.71243 -1.27122,-1.16433 -3.95647,-1.14636 -3.05568,0.0204 -5.08075,0.41089 -10.42121,2.00925 -2.38468,0.71373 -4.3825,1.25097 -4.4396,1.19387 -0.18862,-0.18861 8.73133,-3.02011 11.02434,-3.4995 2.7309,-0.57095 6.68198,-0.65241 7.84419,-0.16173 0.72775,0.30725 0.94455,0.29161 1.71979,-0.12411 1.95387,-1.04775 6.41749,-0.47874 12.66102,1.61401 3.35755,1.1254 2.86289,1.05149 -1.71979,-0.25698 -4.24685,-1.21258 -8.69278,-1.56316 -10.16549,-0.80159 l -0.86821,0.44897 0.57227,0.60915 c 0.31475,0.33504 0.7339,1.1462 0.93144,1.80258 0.33157,1.10172 0.31303,1.48952 -0.16074,3.36157 -0.13175,0.52058 0.85258,0.65543 2.00587,0.27481 1.2403,-0.40934 2.25738,-1.25774 2.6623,-2.22076 0.29314,-0.69716 0.27995,-0.85022 -0.0973,-1.12911 -0.33647,-0.24874 -0.36474,-0.39532 -0.12346,-0.64014 0.56782,-0.57614 1.14234,-0.0721 1.14128,1.0012 -0.002,2.29507 -2.23765,3.99456 -4.84757,3.68545 -1.05931,-0.12546 -1.39496,-0.0661 -1.69075,0.29905 -0.33444,0.41285 -0.34403,0.40354 -0.10225,-0.0992 z m -33.7074,-2.32985 c -1.28522,-0.56731 -1.85208,-1.39167 -1.85208,-2.69339 0,-0.92027 0.15296,-1.30686 0.748,-1.89045 l 0.74801,-0.73362 -0.57822,0.99645 c -0.75183,1.29563 -0.54829,2.54731 0.5668,3.4856 0.91262,0.76792 1.35938,0.90191 3.4102,1.02282 1.31809,0.0777 1.2807,0.0894 -0.39688,0.12437 -1.04758,0.0218 -2.19687,-0.1136 -2.64583,-0.31178 z m 5.49514,-0.0769 c 0.25743,-0.0671 0.61462,-0.0627 0.79375,0.01 0.17913,0.0725 -0.0315,0.12736 -0.46806,0.12197 -0.43656,-0.005 -0.58312,-0.0647 -0.32569,-0.13177 z m 1.45017,-0.25646 c 0.1819,-0.0734 0.47956,-0.0734 0.66146,0 0.1819,0.0734 0.0331,0.13345 -0.33073,0.13345 -0.3638,0 -0.51263,-0.06 -0.33073,-0.13345 z m 1.33945,-0.2701 c 0.191,-0.0764 0.4192,-0.067 0.50712,0.0209 0.0879,0.0879 -0.0684,0.15045 -0.34726,0.13897 -0.30823,-0.0127 -0.37092,-0.0754 -0.15986,-0.15986 z m 1.05834,-0.26458 c 0.19099,-0.0764 0.4192,-0.067 0.50712,0.0209 0.0879,0.0879 -0.0684,0.15045 -0.34727,0.13896 -0.30822,-0.0127 -0.37092,-0.0754 -0.15985,-0.15985 z m 1.63711,-0.48072 c 0.50932,-0.19614 1.10463,-0.35662 1.32291,-0.35662 0.21829,0 -0.0198,0.16048 -0.52916,0.35662 -0.50933,0.19614 -1.10464,0.35662 -1.32292,0.35662 -0.21828,0 0.0198,-0.16048 0.52917,-0.35662 z m 44.64844,-0.32369 c 0.47294,-0.0587 1.24685,-0.0587 1.71979,0 0.47294,0.0587 0.086,0.10671 -0.8599,0.10671 -0.94588,0 -1.33284,-0.048 -0.85989,-0.10671 z m -51.6486,-0.31948 c -0.0837,-0.13547 -0.0312,-0.32109 0.11667,-0.41249 0.81626,-0.50448 -0.075,-2.34495 -1.41869,-2.92978 -0.51791,-0.22541 -0.64837,-0.36333 -0.34979,-0.36983 1.49422,-0.0325 3.03411,1.86695 2.67464,3.29917 -0.16442,0.65508 -0.73164,0.88408 -1.02283,0.41293 z m 49.54847,0.0656 c 0.19099,-0.0764 0.41919,-0.067 0.50712,0.0209 0.0879,0.0879 -0.0684,0.15046 -0.34727,0.13897 -0.30823,-0.0127 -0.37092,-0.0754 -0.15985,-0.15985 z m 5.41757,-0.35165 c 1.0032,-0.78912 1.17704,-1.97958 0.43857,-3.00331 l -0.59867,-0.82993 0.70336,0.64143 c 0.92876,0.84699 0.97137,2.32184 0.091,3.14891 -0.3368,0.31641 -0.76957,0.57529 -0.96172,0.57529 -0.19214,0 -0.0448,-0.23958 0.32747,-0.53239 z m -4.04505,-1.7286 c 0,-1.04168 0.9549,-2.24203 1.77392,-2.22989 0.359,0.005 0.29467,0.11843 -0.26333,0.46302 -0.73725,0.45528 -1.15136,1.36684 -1.01847,2.24192 0.0387,0.25466 -0.0562,0.46302 -0.2109,0.46302 -0.15467,0 -0.28122,-0.42213 -0.28122,-0.93807 z m -42.46158,-3.33935 c -0.66222,-0.52091 -0.71518,-0.68797 -0.57997,-1.82958 0.20935,-1.76771 -0.25129,-1.81977 -2.31051,-0.26115 -3.53724,2.67732 -7.19013,3.13921 -8.97493,1.13482 -0.68805,-0.7727 -0.49383,-1.77665 0.34499,-1.78339 0.84442,-0.007 1.46797,-0.93537 2.93464,-4.37021 0.93784,-2.19635 1.08659,-2.75818 0.82618,-3.12034 -0.88433,-1.22983 -0.42353,-1.84477 1.9166,-2.55771 3.29326,-1.00333 6.52638,0.0542 7.29609,2.38645 0.38286,1.16007 -0.13969,3.11168 -1.34445,5.02124 -0.82187,1.30267 -0.82369,1.31279 -0.11888,0.66146 0.39366,-0.36381 1.14002,-1.23822 1.65856,-1.94314 0.85906,-1.16782 1.0155,-1.26714 1.76097,-1.11805 0.44999,0.09 1.02868,0.37415 1.28598,0.63145 0.44737,0.44737 0.41561,0.5751 -0.72668,2.92207 -0.65698,1.34983 -1.19451,2.51169 -1.19451,2.58192 0,0.0702 0.42081,-0.19329 0.93513,-0.58558 0.83747,-0.63877 1.01015,-0.67882 1.65364,-0.38351 l 0.71852,0.32975 -1.05833,0.92368 c -1.29993,1.13455 -2.81098,1.93307 -3.65795,1.93307 -0.34997,0 -0.96426,-0.25796 -1.36509,-0.57325 z m -4.95724,-3.67234 c 1.72206,-0.98756 3.76257,-3.60407 3.76257,-4.82466 0,-0.91151 -0.64718,-1.77766 -1.32824,-1.77766 -0.95541,0 -1.80066,1.10429 -3.1316,4.09133 -0.74855,1.67997 -1.36099,3.11355 -1.36099,3.18574 0,0.3179 0.7642,0.0674 2.05826,-0.67475 z m 15.53653,3.75832 c -1.20005,-0.73371 -1.47661,-1.19773 -1.63048,-2.7356 -0.35835,-3.58155 2.19847,-9.11523 5.15992,-11.16751 1.30041,-0.90119 2.34789,-0.87992 3.6653,0.0744 2.10244,1.523 2.81907,3.0695 2.08246,4.49395 -0.5254,1.01601 -0.52715,1.00493 0.18692,1.18415 0.33032,0.0829 0.86532,0.39739 1.18891,0.69885 l 0.58833,0.54811 -1.20542,2.40013 c -0.66298,1.32007 -1.15313,2.45242 -1.08922,2.51633 0.24827,0.24828 2.28126,-2.38077 3.2149,-4.1575 1.0811,-2.05734 1.45086,-2.33756 2.40831,-1.82515 0.88829,0.4754 0.81717,1.11476 -0.4052,3.64246 -0.57685,1.19285 -0.95404,2.16882 -0.83819,2.16882 0.30875,0 2.28641,-2.73954 3.27247,-4.53318 0.89547,-1.62886 1.44476,-1.89697 2.60939,-1.27368 0.37402,0.20017 0.77725,0.18571 1.43287,-0.0514 0.77093,-0.27877 1.05321,-0.26276 1.82076,0.10325 1.59018,0.75831 1.48451,1.40738 -0.85079,5.2258 -0.22249,0.36381 0.44966,-0.16878 1.49367,-1.18353 1.83593,-1.78444 2.17968,-2.39792 1.64389,-2.93371 -0.39824,-0.39824 0.2985,-1.52701 1.05019,-1.70142 0.45002,-0.10441 0.89567,-0.59103 1.40374,-1.53278 0.82458,-1.52842 1.49859,-1.76567 2.56439,-0.90263 l 0.58928,0.47717 -0.68384,1.3495 c -0.58836,1.16106 -0.63038,1.39387 -0.30095,1.66728 0.28983,0.24054 0.31635,0.45571 0.10909,0.8853 -0.15059,0.31214 0.10558,0.11607 0.56927,-0.43572 2.24474,-2.67124 5.27191,-2.254 5.27191,0.72664 0,1.27873 0.0462,1.33813 0.74876,0.96215 0.29675,-0.15882 0.61058,-0.12263 0.92399,0.10654 0.44936,0.32857 0.44251,0.36953 -0.12877,0.76967 -0.33187,0.23244 -0.92244,0.42263 -1.31239,0.42263 -0.55792,0 -0.77112,0.17821 -1.00054,0.83634 -0.66477,1.90694 -2.61374,3.65864 -4.07284,3.66058 -0.8606,0.001 -2.20084,-0.63033 -2.37266,-1.11792 -0.0897,-0.25455 -0.32728,-0.21617 -0.97737,0.15788 -0.98824,0.56862 -2.7331,0.46826 -3.39674,-0.19538 -0.36128,-0.36128 -0.52529,-0.33174 -1.57571,0.28385 -1.78784,1.04775 -3.51509,0.78128 -4.04966,-0.62476 -0.21801,-0.57339 -0.0647,-0.98597 1.05054,-2.82659 0.71819,-1.18536 1.2634,-2.1976 1.21157,-2.24943 -0.22967,-0.22967 -0.67578,0.38685 -2.35345,3.25249 -1.90817,3.25936 -2.27186,3.5312 -3.53795,2.64439 -0.53222,-0.37278 -0.64385,-0.37278 -1.17607,0 -0.72568,0.50828 -1.79467,0.53033 -2.45081,0.0505 -0.42499,-0.31075 -0.65757,-0.28905 -1.66159,0.15508 -1.36808,0.60517 -2.22085,0.47356 -3.10363,-0.47897 -0.41724,-0.4502 -0.67592,-0.56561 -0.80384,-0.35862 -0.33121,0.53591 -2.33624,1.29665 -3.43064,1.30163 -0.58208,0.003 -1.41552,-0.21356 -1.85208,-0.48047 z m 4.65269,-3.41533 c 2.41318,-2.48104 2.87965,-3.05831 2.28778,-2.83119 -0.62788,0.24095 -2.04568,-0.60251 -2.04568,-1.21699 0,-0.29087 0.47625,-1.28294 1.05833,-2.20461 1.48931,-2.35814 1.39513,-3.0813 -0.18494,-1.42013 -2.42161,2.54592 -5.0565,8.62713 -4.13658,9.54705 0.46235,0.46235 1.18384,0.0148 3.02109,-1.87413 z m 22.30541,0.92604 c 0.36387,-0.32742 1.00866,-1.19732 1.43287,-1.93311 l 0.7713,-1.33779 -0.69697,0.10229 c -0.5489,0.0806 -0.90967,0.49124 -1.6982,1.93311 -1.02954,1.88255 -0.96829,2.27869 0.191,1.2355 z m 4.40776,0 c 0.66384,-0.70255 1.42899,-2.15329 1.67455,-3.175 0.50391,-2.09657 -1.86122,0.79472 -2.59721,3.175 -0.10846,0.35078 -0.0723,0.59531 0.088,0.59531 0.14966,0 0.52524,-0.26789 0.83462,-0.59531 z m -37.93025,-5.91438 c -0.95292,-0.51659 -0.88395,-1.54593 0.15535,-2.3185 0.69492,-0.51658 0.77374,-0.5226 1.45521,-0.11123 0.96266,0.58111 1.04198,1.36595 0.22102,2.18691 -0.77176,0.77176 -0.83934,0.78072 -1.83158,0.24282 z"
         id="path55"
         inkscape:connector-curvature="0" />
      <path
         style="fill:#df9a25;stroke-width:0.26458335"
         d="m 137.56806,171.47588 c -1.47322,-0.45362 -3.03403,-2.05493 -3.27978,-3.3649 -0.26334,-1.40377 -0.063,-2.42107 0.49778,-2.52752 0.82511,-0.15661 1.12605,0.39724 0.55731,1.02569 -0.49157,0.54318 -0.48963,0.57236 0.11358,1.70943 0.33753,0.63625 1.09695,1.49171 1.68759,1.90103 0.95137,0.6593 1.30757,0.74422 3.12178,0.74422 1.12634,0 2.00174,0.0746 1.94535,0.16589 -0.13251,0.21441 -2.31823,0.76571 -2.94066,0.74172 -0.26299,-0.0101 -1.02931,-0.18814 -1.70295,-0.39556 z m 7.83938,-2.468 c -0.29104,-0.12474 -0.63122,-0.16725 -0.75595,-0.0945 -0.12473,0.0728 -0.1545,-0.12071 -0.0661,-0.42998 0.0883,-0.30927 0.22633,-0.79457 0.30662,-1.07846 0.29692,-1.04975 -0.97006,-3.98176 -1.72059,-3.98176 -0.11731,0 -0.36741,0.3721 -0.55579,0.82688 -0.26276,0.63438 -0.2749,1.08093 -0.0521,1.91823 0.25598,0.96206 0.24614,1.03105 -0.0831,0.58236 -0.55437,-0.75548 -0.73971,-2.14539 -0.41159,-3.08663 0.36963,-1.06032 0.28641,-1.17213 -1.13963,-1.53121 -2.53875,-0.63926 -6.23506,-0.18752 -11.81798,1.44434 -4.66044,1.36223 -4.87509,1.34888 -0.77189,-0.048 1.96313,-0.66833 4.58251,-1.43925 5.82083,-1.71316 2.48442,-0.54953 6.9327,-0.67817 8.10032,-0.23424 0.54911,0.20877 0.96979,0.17683 1.74236,-0.13229 1.55294,-0.62137 4.89578,-0.52291 8.01923,0.23619 2.48426,0.60375 4.22284,1.15372 3.76697,1.19161 -0.11099,0.009 -1.0556,-0.21984 -2.09914,-0.50902 -3.05265,-0.84593 -6.02442,-1.15603 -7.71505,-0.80506 -1.48212,0.30769 -2.30288,0.86179 -1.76705,1.19295 0.15467,0.0956 0.53065,0.66275 0.83553,1.26036 0.5549,1.08769 0.60401,3.05324 0.10581,4.23535 -0.1646,0.39055 -0.0485,0.46302 0.74198,0.46302 1.75208,0 3.24331,-0.904 4.05035,-2.45537 0.33934,-0.65233 0.33457,-0.78367 -0.0421,-1.16039 -0.49542,-0.49542 -0.13723,-1.04453 0.51747,-0.7933 1.04022,0.39917 0.14678,3.24714 -1.29896,4.14066 -0.9804,0.60592 -2.92129,0.8996 -3.71034,0.56141 z m -32.87084,-1.80579 c 0.40218,-0.0608 0.99749,-0.0592 1.32291,0.004 0.32543,0.0628 -0.004,0.11256 -0.73124,0.11058 -0.7276,-0.002 -0.99386,-0.0534 -0.59167,-0.11419 z m -2.98701,-0.83457 c -1.32158,-1.32159 -1.2822,-3.01755 0.0971,-4.18196 0.56871,-0.4801 0.56912,-0.47976 0.0968,0.0803 -1.13285,1.34341 -0.73523,3.43988 0.83755,4.41598 0.55329,0.34338 0.59649,0.43284 0.21174,0.43844 -0.26586,0.004 -0.82531,-0.33489 -1.24323,-0.75281 z m 57.09375,-1.01478 c 0.32912,-0.0633 0.80537,-0.0609 1.05833,0.005 0.25297,0.0662 -0.0163,0.118 -0.5984,0.11507 -0.58208,-0.003 -0.78905,-0.0571 -0.45993,-0.12041 z m -52.1821,-0.32578 c -0.0844,-0.13657 0.0374,-0.35513 0.27068,-0.48569 0.38418,-0.215 0.38621,-0.32819 0.0215,-1.20109 -0.22342,-0.53473 -0.79253,-1.20142 -1.27849,-1.49769 -0.4817,-0.29369 -0.69395,-0.53442 -0.47166,-0.53496 0.4617,-0.001 1.55775,0.70437 2.03483,1.30978 0.47256,0.59968 0.43995,2.65798 -0.0421,2.65798 -0.20969,0 -0.45032,-0.11175 -0.53473,-0.24833 z m 55.17593,-0.52507 c 0.86556,-0.86556 0.97663,-1.70127 0.35532,-2.67346 l -0.41808,-0.65419 0.55037,0.62463 c 0.74696,0.84773 0.7058,2.02212 -0.0991,2.82698 -0.35719,0.35719 -0.76475,0.64944 -0.90569,0.64944 -0.14094,0 0.0918,-0.34803 0.51714,-0.7734 z m -4.0773,-0.72591 c -0.28675,-0.28675 -0.18535,-1.5098 0.16276,-1.96321 0.34074,-0.4438 1.33061,-1.04264 1.69398,-1.02481 0.11871,0.006 -0.11708,0.1911 -0.52396,0.41171 -0.8367,0.45366 -1.28023,1.36863 -1.06409,2.19514 0.14783,0.56528 0.0517,0.70159 -0.26869,0.38117 z m -42.62746,-4.09276 c -0.6408,-0.50406 -0.70885,-0.71023 -0.63099,-1.91167 0.11573,-1.7858 -0.4212,-1.90463 -2.06561,-0.45716 -3.10358,2.73187 -7.26447,3.42383 -9.06479,1.50747 -0.8001,-0.85166 -0.67458,-1.87894 0.23046,-1.88621 0.84442,-0.007 1.46797,-0.93537 2.93464,-4.37021 0.93784,-2.19635 1.08659,-2.75818 0.82618,-3.12034 -0.88433,-1.22983 -0.42353,-1.84477 1.9166,-2.55771 2.53171,-0.77131 4.84545,-0.39551 6.36013,1.03301 0.83104,0.78377 0.93403,1.02927 0.93403,2.22628 0,1.50051 -0.23657,2.16462 -1.52488,4.28069 l -0.88596,1.45521 1.13927,-1.19063 c 0.62661,-0.65484 1.4469,-1.60048 1.82289,-2.10141 0.63556,-0.84679 0.74518,-0.89313 1.55992,-0.65947 1.54239,0.44236 1.58595,0.89176 0.33154,3.42106 -0.61592,1.24191 -1.11986,2.38139 -1.11986,2.53218 0,0.15078 0.41106,-0.0394 0.91348,-0.42259 0.62109,-0.47373 1.08686,-0.6417 1.4552,-0.5248 0.8415,0.26708 0.65033,0.73957 -0.71503,1.76719 -2.31578,1.74294 -3.19765,1.93841 -4.41722,0.97911 z m -4.96775,-3.68061 c 1.72206,-0.98756 3.76257,-3.60407 3.76257,-4.82466 0,-1.66743 -1.62036,-2.34662 -2.72461,-1.14205 -0.51656,0.56348 -3.11235,6.06712 -3.10076,6.57428 0.009,0.38335 0.67927,0.18586 2.0628,-0.60757 z m 15.80111,3.88916 c -1.25125,-0.57541 -1.73946,-1.31191 -1.89413,-2.85741 -0.46083,-4.60493 3.81132,-11.86741 6.98102,-11.86741 1.15496,0 2.97512,1.44191 3.72545,2.95126 0.58066,1.16806 0.59011,1.27577 0.19496,2.22149 -0.22841,0.54666 -0.38396,1.0054 -0.34567,1.01944 0.0383,0.014 0.51611,0.25263 1.06181,0.53021 1.19953,0.61015 1.25619,1.14455 0.29712,2.8026 -0.37878,0.65485 -0.91328,1.72641 -1.18777,2.38125 l -0.49907,1.19063 1.26939,-1.34895 c 0.69817,-0.74193 1.72094,-2.20825 2.27283,-3.25849 0.55189,-1.05024 1.17946,-1.97708 1.39462,-2.05964 0.21515,-0.0826 0.6906,0.0101 1.05655,0.20598 0.83824,0.44862 0.7627,0.98799 -0.52509,3.74912 -0.526,1.12779 -0.86031,2.05052 -0.7429,2.05052 0.31115,0 2.28521,-2.73219 3.27531,-4.53318 0.89547,-1.62886 1.44476,-1.89697 2.60939,-1.27368 0.37474,0.20055 0.77956,0.18488 1.44561,-0.056 0.8052,-0.29117 1.04342,-0.27082 1.83781,0.15699 1.36955,0.73755 1.38629,1.23795 0.11385,3.40426 -0.61533,1.04759 -1.17745,2.02377 -1.24917,2.16929 -0.0717,0.14552 0.71944,-0.56566 1.75812,-1.58041 1.8273,-1.78519 2.1691,-2.39879 1.63418,-2.93371 -0.39824,-0.39824 0.2985,-1.52701 1.05019,-1.70142 0.45002,-0.10441 0.89567,-0.59103 1.40374,-1.53278 0.82612,-1.53128 1.49852,-1.76572 2.57173,-0.89669 l 0.59662,0.48311 -0.72775,1.2418 c -0.58955,1.006 -0.66623,1.31593 -0.40379,1.63215 0.17818,0.21468 0.25657,0.65886 0.17421,0.98706 -0.1154,0.45984 0.0371,0.36658 0.66477,-0.40653 1.4977,-1.84473 3.28879,-2.28865 4.54326,-1.12605 0.55933,0.51837 0.7001,0.89076 0.7001,1.85208 0,1.27935 0.0462,1.33876 0.74876,0.96276 0.29534,-0.15807 0.60842,-0.12421 0.91336,0.0988 0.43222,0.31604 0.41901,0.36874 -0.19288,0.76967 -0.36128,0.23672 -0.92896,0.43068 -1.2615,0.43103 -0.46496,4.7e-4 -0.78245,0.34095 -1.37449,1.47398 -0.85356,1.63352 -2.01669,2.6678 -3.28554,2.92157 -0.98419,0.19684 -2.33697,-0.29423 -2.70502,-0.98193 -0.24702,-0.46157 -0.29737,-0.45865 -1.19179,0.0691 -1.05388,0.6218 -2.49701,0.54394 -3.29446,-0.17774 -0.42863,-0.38791 -0.54398,-0.36789 -1.45931,0.25328 -1.55783,1.05717 -3.59825,0.79054 -4.10264,-0.53611 -0.22792,-0.59948 -0.0836,-0.98738 1.09076,-2.93158 0.74439,-1.23237 1.29193,-2.30218 1.21676,-2.37735 -0.19247,-0.19248 -1.08899,1.07306 -2.66517,3.76219 -1.63251,2.78525 -1.9874,3.06298 -3.10084,2.4266 -0.72702,-0.41552 -0.86823,-0.42231 -1.37672,-0.0661 -0.71698,0.50219 -1.43384,0.50086 -2.40275,-0.004 -0.5438,-0.28361 -0.85974,-0.31798 -1.09884,-0.11955 -1.09114,0.90557 -3.28724,0.73462 -3.84039,-0.29894 -0.25595,-0.47826 -0.31242,-0.46974 -1.32383,0.19958 -1.25389,0.82978 -3.18528,1.06433 -4.35077,0.52837 z m 4.38811,-3.54617 c 1.09694,-1.12779 2.16571,-2.28117 2.37504,-2.56308 0.33569,-0.45208 0.33214,-0.49445 -0.0301,-0.3591 -0.68681,0.25661 -2.10281,-0.48844 -2.10281,-1.10643 0,-0.30163 0.47625,-1.30251 1.05833,-2.22418 1.11338,-1.7629 1.30193,-2.37508 0.68788,-2.23328 -1.19179,0.27521 -4.80826,6.40868 -5.11142,8.66887 -0.33669,2.51023 0.55447,2.45807 3.12311,-0.1828 z m 22.30541,0.92604 c 0.36387,-0.32742 1.00866,-1.19732 1.43287,-1.93311 l 0.7713,-1.33779 -0.71397,0.10479 c -0.55485,0.0814 -0.92986,0.48015 -1.6827,1.78909 -0.5328,0.92637 -0.96872,1.74911 -0.96872,1.82832 0,0.31932 0.53659,0.11077 1.16122,-0.4513 z m 4.40776,0 c 1.01959,-1.07904 2.17961,-3.9026 1.60333,-3.9026 -0.61804,0 -2.65115,3.17484 -2.66859,4.16718 -0.009,0.50684 0.44221,0.3948 1.06526,-0.26458 z m -38.21958,-6.10024 c -0.65166,-0.4765 -0.4501,-1.46667 0.43215,-2.12291 0.63665,-0.47355 0.80065,-0.49518 1.38468,-0.18262 0.8741,0.46781 1.07807,1.204 0.55481,2.00258 -0.47752,0.72879 -1.5942,0.87143 -2.37164,0.30295 z"
         id="path53"
         inkscape:connector-curvature="0" />
      <path
         style="fill:#926555;stroke-width:0.26458335"
         d="m 122.65765,159.45929 c -0.37513,-0.41452 -0.43947,-0.77995 -0.3072,-1.74498 0.14781,-1.07834 0.10477,-1.23701 -0.36911,-1.36093 -0.48198,-0.12604 -0.43013,-0.23126 0.51087,-1.03672 0.576,-0.49304 1.49133,-1.50135 2.03406,-2.24069 0.90077,-1.2271 1.05743,-1.33012 1.79757,-1.18209 0.44595,0.0892 0.91774,0.26909 1.04844,0.39979 0.14044,0.14044 -0.30942,1.38279 -1.09997,3.03774 -1.43987,3.01424 -1.36786,3.43078 0.36467,2.10932 0.54071,-0.41242 1.07871,-0.6244 1.33506,-0.52603 0.59141,0.22695 0.18507,0.67844 -1.80896,2.01001 -1.75582,1.17249 -2.78596,1.32959 -3.50543,0.53458 z m 10.2169,-0.14843 c -1.01661,-0.85542 -1.28691,-2.4214 -0.8449,-4.89478 0.77806,-4.35373 4.37303,-9.24913 6.79217,-9.24913 1.45095,0 3.80677,2.37614 3.80366,3.83646 -0.002,0.69363 -1.34211,3.00273 -2.21434,3.81398 -0.59255,0.55112 -0.77831,0.59737 -1.35108,0.3364 -0.9327,-0.42497 -0.84031,-1.10618 0.42083,-3.10305 1.03973,-1.6463 1.18703,-2.50254 0.43051,-2.50254 -1.27569,0 -4.79526,5.80348 -5.36662,8.84911 -0.20849,1.1113 0.2455,1.99881 1.02245,1.99881 0.67789,0 3.99585,-3.26054 5.5868,-5.4901 1.06112,-1.48707 1.58788,-1.67892 2.52541,-0.91975 l 0.57958,0.46931 -1.35388,2.76855 c -0.92088,1.8831 -1.24916,2.80345 -1.02643,2.87769 0.52153,0.17385 2.66834,-2.36228 3.763,-4.44543 1.04611,-1.99074 1.53151,-2.41117 2.24909,-1.94801 0.5597,0.36125 0.45527,0.81316 -0.82789,3.58279 -0.59091,1.27546 -1.0057,2.3877 -0.92175,2.47165 0.45356,0.45357 2.38738,-1.83478 3.94524,-4.66854 0.9099,-1.6551 1.45401,-1.9245 2.62319,-1.29877 0.37517,0.20078 0.78096,0.18437 1.45338,-0.0588 0.78518,-0.28392 1.04535,-0.27422 1.64306,0.0613 0.39059,0.21923 0.75133,0.61235 0.80164,0.87361 0.0503,0.26125 -0.45485,1.41529 -1.1226,2.56451 -0.66775,1.14923 -1.21409,2.15178 -1.21409,2.22788 0,0.5107 0.92439,-0.11228 2.45449,-1.65421 1.73296,-1.74634 2.04601,-2.33234 1.52452,-2.85383 -0.39824,-0.39824 0.2985,-1.52701 1.05019,-1.70142 0.45002,-0.10441 0.89567,-0.59103 1.40374,-1.53278 0.7621,-1.41263 1.37602,-1.71064 2.29831,-1.11569 0.34182,0.22051 0.29763,0.44447 -0.31856,1.61451 -0.62422,1.18527 -0.66664,1.4073 -0.3327,1.74124 0.55329,0.55329 -0.17502,1.93638 -1.01964,1.93638 -0.46998,0 -0.81457,0.39913 -1.59986,1.85304 -0.84441,1.56338 -0.93552,1.87812 -0.5828,2.01347 0.68349,0.26228 1.64541,-0.57864 2.67849,-2.34157 1.91691,-3.27118 3.18338,-4.43535 4.82509,-4.43535 1.13104,0 1.64165,0.72656 1.64165,2.33593 0,1.42568 0.35032,1.72434 1.31028,1.11706 0.21134,-0.13369 0.48322,-0.18191 0.60418,-0.10715 0.36862,0.22782 -1.02725,1.15207 -1.73993,1.15207 -0.46117,0 -0.72575,0.18435 -0.85441,0.59532 -0.32278,1.03105 -1.72079,2.8638 -2.58772,3.39242 -0.4584,0.27951 -1.2204,0.50865 -1.69334,0.50919 -0.91512,0.001 -1.91823,-0.76439 -1.91823,-1.46376 0,-0.31823 -0.21425,-0.26082 -0.98746,0.26459 -1.3133,0.89241 -2.7575,0.90667 -3.44395,0.034 l -0.50106,-0.637 -1.16387,0.78166 c -1.55018,1.04111 -3.11546,0.99553 -3.64103,-0.10604 -0.3267,-0.68475 -0.26342,-0.87169 1.00691,-2.9748 1.33499,-2.21014 1.51597,-3.04078 0.54988,-2.52374 -0.26155,0.13998 -1.2932,1.62858 -2.29255,3.308 -1.93603,3.25353 -2.42744,3.61834 -3.41059,2.53196 -0.46969,-0.519 -0.47522,-0.519 -1.13503,0 -0.80774,0.63538 -1.83982,0.67122 -2.48611,0.0863 -0.44824,-0.40565 -0.55875,-0.39391 -1.62712,0.17286 -1.45818,0.77356 -2.48944,0.58127 -2.91393,-0.54334 -0.33626,-0.89084 -0.50209,-0.95215 -0.98889,-0.3656 -0.61717,0.74364 -2.31654,1.43587 -3.52498,1.43587 -0.87887,0 -1.38534,-0.17206 -1.9804,-0.67276 z m 31.9925,-2.03922 c 0.66517,-0.70395 1.42907,-2.15371 1.67601,-3.18081 0.20897,-0.86915 -0.38632,-1.25375 -1.06664,-0.68913 -0.96337,0.79952 -2.37991,3.71106 -2.05853,4.23106 0.25207,0.40786 0.86744,0.25452 1.44916,-0.36112 z m -52.79711,2.21156 c -1.4842,-0.64755 -1.97998,-2.53701 -0.66846,-2.54755 0.84442,-0.007 1.46797,-0.93537 2.93464,-4.37021 0.93784,-2.19635 1.08659,-2.75818 0.82618,-3.12034 -0.89827,-1.24921 -0.41915,-1.85551 2.04799,-2.59165 2.92849,-0.8738 6.01684,0.0166 6.64347,1.91527 0.91002,2.75738 -2.53018,7.96125 -6.5816,9.95576 -1.76358,0.8682 -4.15266,1.21664 -5.20222,0.75872 z m 5.89472,-3.48059 c 1.90083,-1.09009 3.82227,-3.66405 3.70959,-4.96939 -0.15147,-1.75489 -2.16539,-2.44723 -3.29183,-1.13165 -0.47215,0.55143 -2.98797,6.06933 -2.99839,6.57632 -0.0117,0.56836 1.12625,0.35878 2.58063,-0.47528 z m 8.68281,-4.83121 c -0.65556,-0.47935 -0.44845,-1.46789 0.44711,-2.13408 1.4036,-1.04411 2.40909,0.54808 1.14463,1.81254 -0.7636,0.7636 -0.93879,0.79899 -1.59174,0.32154 z"
         id="path51"
         inkscape:connector-curvature="0" />
      <path
         style="fill:#9f5e1c;stroke-width:0.26458335"
         d="m 122.67926,159.41126 c -0.2816,-0.40204 -0.35428,-0.91245 -0.24425,-1.71524 0.14103,-1.0289 0.0943,-1.16594 -0.46818,-1.37403 l -0.62483,-0.23114 0.83612,-0.43237 c 0.45986,-0.23781 1.40974,-1.2074 2.11084,-2.15466 0.7011,-0.94725 1.41796,-1.72228 1.59301,-1.72228 0.4273,0 1.66706,0.57433 1.66229,0.77007 -0.002,0.0858 -0.59069,1.37636 -1.30799,2.86795 -1.13404,2.35816 -1.23975,2.71198 -0.81025,2.71198 0.27167,0 0.86202,-0.30972 1.3119,-0.68827 0.48896,-0.41143 0.98801,-0.62301 1.24073,-0.52604 0.58436,0.22425 0.17193,0.68028 -1.81557,2.00748 -1.80485,1.20523 -2.87569,1.35478 -3.48382,0.48655 z m 10.30591,-0.0548 c -1.54179,-1.23363 -1.3112,-5.26942 0.50742,-8.8807 1.08859,-2.16167 3.57681,-4.90758 4.69804,-5.1846 1.13433,-0.28025 2.98684,0.75225 3.78097,2.10731 0.83675,1.42781 0.82366,1.83787 -0.11035,3.45707 -1.04766,1.81624 -2.03518,2.71073 -2.59958,2.35472 -1.01894,-0.64273 -0.99847,-1.04659 0.14553,-2.87115 1.19859,-1.91163 1.39649,-2.79086 0.62818,-2.79086 -1.00188,0 -3.32925,3.12551 -4.57265,6.1408 -1.11087,2.69387 -1.23363,3.71524 -0.53101,4.41786 0.51808,0.51808 0.62183,0.53228 1.30562,0.17867 0.97498,-0.50418 3.85272,-3.59342 4.83593,-5.19134 0.42686,-0.69374 0.95914,-1.33157 1.18284,-1.41742 0.3611,-0.13856 1.96071,0.47846 1.96071,0.75632 0,0.0598 -0.59553,1.32657 -1.32338,2.81496 -0.72786,1.4884 -1.27262,2.75694 -1.21057,2.81899 0.59101,0.59101 2.91434,-2.05327 4.41838,-5.02873 0.797,-1.57671 0.98343,-1.70435 1.82874,-1.25195 0.58384,0.31246 0.53708,0.49041 -0.9898,3.7671 -0.95129,2.0415 -0.99028,2.6807 -0.131,2.14777 0.64449,-0.3997 2.22501,-2.53714 3.27505,-4.42906 0.81377,-1.4662 0.97638,-1.6166 1.68386,-1.55744 1.07151,0.0896 2.20265,0.11384 3.24883,0.0696 0.98095,-0.0415 1.6353,0.36959 1.6353,1.02732 0,0.23989 -0.53578,1.35143 -1.19062,2.4701 -1.33238,2.2761 -1.34762,2.32062 -0.79451,2.32062 0.476,0 2.22384,-1.54149 3.32667,-2.93392 0.68624,-0.86645 0.75171,-1.07952 0.4702,-1.53028 -0.47991,-0.76845 0.0794,-1.8858 0.94392,-1.8858 0.5133,0 0.80721,-0.29218 1.39474,-1.38651 0.79931,-1.4888 1.25831,-1.75131 2.04999,-1.17241 0.4871,0.35617 0.48136,0.40303 -0.19838,1.61922 -0.61652,1.10308 -0.65352,1.2989 -0.31026,1.64216 0.34327,0.34327 0.34184,0.48238 -0.012,1.16656 -0.26493,0.51231 -0.60566,0.77681 -1.00069,0.77681 -0.46998,0 -0.81457,0.39913 -1.59986,1.85304 -0.86287,1.59754 -0.94118,1.87595 -0.56797,2.01916 0.81213,0.31164 1.67725,-0.39878 2.68274,-2.20302 2.03484,-3.65131 4.21549,-5.23622 5.78737,-4.20628 0.57096,0.37411 0.66029,0.62867 0.66029,1.88174 0,1.33573 0.0476,1.44911 0.60854,1.44911 0.3347,0 0.75142,-0.14287 0.92604,-0.3175 0.19463,-0.19462 0.3175,-0.21049 0.3175,-0.041 0,0.48984 -0.94775,1.15225 -1.64859,1.15225 -0.5031,0 -0.74908,0.19 -0.94202,0.72761 -0.41842,1.16586 -1.82806,2.92199 -2.71268,3.37945 -1.22207,0.63195 -2.3777,0.41844 -3.03508,-0.56076 l -0.55005,-0.81933 -0.90613,0.62089 c -1.18334,0.81083 -2.4758,0.81001 -3.28791,-0.002 l -0.62299,-0.62299 -1.12459,0.75528 c -1.3023,0.87464 -2.60839,0.98362 -3.25291,0.27143 -0.66333,-0.73298 -0.54602,-1.25538 0.76788,-3.41956 0.66317,-1.09233 1.14119,-2.15434 1.06226,-2.36002 -0.29015,-0.75614 -1.14427,0.17275 -2.95157,3.20993 -1.93603,3.25352 -2.42744,3.61833 -3.41059,2.53196 -0.46969,-0.519 -0.47522,-0.519 -1.13503,0 -0.80627,0.63422 -1.59358,0.66391 -2.41159,0.091 -0.57681,-0.40402 -0.67928,-0.39431 -1.66082,0.15735 -1.26318,0.70994 -2.14589,0.56464 -2.78583,-0.45857 -0.24884,-0.39787 -0.48894,-0.77348 -0.53356,-0.83469 -0.0446,-0.0612 -0.34854,0.13322 -0.67539,0.43207 -1.65569,1.51384 -3.9941,1.85159 -5.34362,0.7718 z m 32.32482,-2.51336 c 1.06638,-1.39421 1.62487,-3.0868 1.16897,-3.5427 -0.42886,-0.42886 -1.0378,-0.0253 -1.92926,1.27848 -0.9425,1.37846 -1.35576,2.74921 -0.96926,3.21492 0.41897,0.50483 0.75941,0.31769 1.72955,-0.9507 z m -53.43184,2.47863 c -1.45671,-0.82099 -1.69421,-2.17341 -0.40352,-2.29786 0.80162,-0.0773 0.94306,-0.25325 2.08708,-2.59645 1.83332,-3.75503 2.0051,-4.37013 1.4723,-5.27209 -0.41106,-0.69587 -0.4093,-0.76863 0.0282,-1.16457 0.93219,-0.84361 2.53889,-1.3284 4.41605,-1.33245 4.51434,-0.01 5.74788,2.5691 3.28824,6.87439 -2.4215,4.23853 -8.19393,7.30757 -10.88836,5.78903 z m 5.85451,-3.02905 c 1.17917,-0.60157 3.20276,-2.76176 3.83478,-4.09365 0.59567,-1.25527 0.32529,-2.19917 -0.78108,-2.72676 -1.28076,-0.61075 -2.29287,-0.12056 -3.04403,1.47429 -1.19159,2.53 -2.3651,5.2958 -2.3651,5.57424 0,0.45642 1.25114,0.33524 2.35543,-0.22812 z m 8.90826,-5.19145 c -0.52552,-0.52552 -0.52405,-0.8994 0.007,-1.65689 0.31649,-0.45185 0.63137,-0.58261 1.25677,-0.52189 1.10813,0.10758 1.26312,0.99934 0.335,1.92746 -0.77756,0.77756 -1.03203,0.81758 -1.59829,0.25132 z"
         id="path49"
         inkscape:connector-curvature="0" />
      <path
         style="fill:#6b2b14;stroke-width:0.26458335"
         d="m 122.6849,159.41932 c -0.28157,-0.402 -0.35138,-0.93468 -0.24273,-1.85208 0.12779,-1.07897 0.0822,-1.28779 -0.28121,-1.28779 -0.63651,0 -0.52847,-0.40106 0.19708,-0.73164 0.34695,-0.15808 1.21016,-1.07016 1.91823,-2.02684 0.70808,-0.95669 1.44407,-1.73943 1.63554,-1.73943 0.52905,-1e-5 1.37167,0.51157 1.37167,0.83278 0,0.15675 -0.55434,1.46353 -1.23188,2.90395 -0.67753,1.44042 -1.16485,2.68598 -1.08292,2.76791 0.1962,0.1962 1.59821,-0.53605 2.03574,-1.06324 0.37586,-0.45289 1.07281,-0.56167 1.07281,-0.16745 0,0.32336 -2.01574,1.9501 -3.09571,2.49831 -1.14354,0.58047 -1.82375,0.54064 -2.29662,-0.13448 z m 10.6245,0.15187 c -0.39652,-0.21519 -0.84329,-0.61984 -0.99281,-0.89923 -0.38272,-0.71512 -0.3877,-3.88569 -0.008,-5.2945 0.78676,-2.92153 3.48517,-6.87827 5.34768,-7.84141 0.973,-0.50316 2.06615,-0.29029 3.13713,0.61088 1.54216,1.29764 1.9388,2.83134 1.13557,4.39097 -0.89182,1.73165 -1.72703,2.59812 -2.42324,2.51395 -1.27704,-0.15439 -1.30026,-0.79563 -0.0982,-2.71279 1.1701,-1.8662 1.36723,-2.70701 0.69511,-2.96493 -1.32397,-0.50805 -5.63952,6.69696 -5.66597,9.45963 -0.006,0.60895 0.17263,1.11565 0.496,1.4083 0.45485,0.41163 0.57991,0.41842 1.25677,0.0683 0.91675,-0.4742 3.29947,-2.95275 4.79538,-4.98824 0.60716,-0.82616 1.21671,-1.57181 1.35455,-1.657 0.36565,-0.22599 1.6132,0.4057 1.6132,0.81684 0,0.19299 -0.56032,1.47888 -1.24516,2.85751 -0.68483,1.37863 -1.17006,2.5817 -1.07827,2.67349 0.64426,0.64426 2.90104,-1.86593 4.47244,-4.97466 0.77804,-1.53921 0.91315,-1.64958 1.6658,-1.36076 0.62202,0.23869 0.52524,0.72432 -0.63981,3.21048 -1.12825,2.40758 -1.26461,2.97892 -0.71098,2.97892 0.66032,0 2.50883,-2.42993 4.20439,-5.52678 0.48727,-0.88998 1.03115,-1.00956 2.04279,-0.44913 0.52343,0.28998 0.78769,0.29384 1.43664,0.021 0.56369,-0.23702 1.01247,-0.25863 1.54139,-0.0743 1.07813,0.37584 0.96766,1.28254 -0.44446,3.64793 -0.65156,1.09141 -1.18599,2.07367 -1.18764,2.18281 -0.0123,0.81605 2.3879,-0.98434 3.96222,-2.97207 0.70635,-0.89185 0.77429,-1.10685 0.49237,-1.55827 -0.48388,-0.77481 0.0795,-1.8858 0.95626,-1.8858 0.52817,0 0.79681,-0.26472 1.32356,-1.30419 0.75901,-1.49785 1.00216,-1.70471 1.73164,-1.47318 0.66853,0.21218 0.66437,0.67671 -0.018,2.01432 -0.4334,0.84953 -0.47956,1.14661 -0.22568,1.45251 0.45207,0.54472 -0.0869,1.62671 -0.86549,1.73757 -0.80725,0.11494 -2.83706,3.52449 -2.37395,3.98761 0.66827,0.66827 1.70286,-0.1336 2.9895,-2.31702 1.52746,-2.59209 2.98609,-4.06524 4.21608,-4.25804 1.44311,-0.2262 1.96662,0.34406 1.94975,2.12388 -0.0134,1.41729 0.0134,1.47612 0.67469,1.47612 0.37877,0 0.83155,-0.14287 1.00618,-0.3175 0.22945,-0.22944 0.3175,-0.23361 0.3175,-0.015 1e-5,0.44081 -1.07979,1.12625 -1.77419,1.12625 -0.44935,0 -0.75955,0.31854 -1.24706,1.28059 -0.72694,1.43455 -2.19925,2.8584 -3.22081,3.11479 -0.94384,0.23689 -1.92454,-0.28152 -2.32234,-1.22761 -0.33325,-0.79256 -0.34144,-0.79532 -0.8129,-0.27436 -0.61767,0.68252 -2.11458,1.1703 -2.94886,0.96091 -0.36102,-0.0906 -0.79142,-0.46108 -0.95645,-0.82327 -0.29629,-0.65029 -0.30692,-0.65223 -0.8509,-0.15594 -1.44097,1.31468 -3.19877,1.70384 -3.94943,0.87437 -0.66218,-0.73169 -0.54607,-1.25531 0.75274,-3.39463 1.33853,-2.20473 1.47941,-2.81568 0.6199,-2.68835 -0.41281,0.0611 -1.09242,0.96307 -2.45611,3.25954 -1.99238,3.35518 -2.53267,3.7978 -3.42808,2.80837 -0.46755,-0.51663 -0.48155,-0.51677 -1.30832,-0.0126 -1.06212,0.64764 -1.62866,0.64467 -2.28532,-0.012 -0.52168,-0.52168 -0.52683,-0.52162 -1.44111,0.0178 -1.3483,0.79552 -2.54912,0.6065 -3.0955,-0.48725 -0.36227,-0.72522 -0.48023,-0.80012 -0.74935,-0.47585 -0.52878,0.63715 -2.96981,1.73416 -3.83358,1.72283 -0.44437,-0.006 -1.13237,-0.18665 -1.5289,-0.40184 z m 31.6946,-2.29955 c 1.3074,-1.54877 2.1051,-3.88708 1.46169,-4.28472 -0.67571,-0.41762 -2.22666,1.33785 -2.93793,3.32535 -0.65806,1.83884 0.24074,2.42296 1.47624,0.95937 z m -52.72377,2.1574 c -0.9021,-0.26397 -1.6655,-1.12055 -1.6655,-1.86878 0,-0.31828 0.25644,-0.47825 0.8599,-0.53644 0.80162,-0.0773 0.94306,-0.25325 2.08708,-2.59645 1.83332,-3.75503 2.0051,-4.37013 1.4723,-5.27209 -0.41106,-0.69587 -0.4093,-0.76863 0.0282,-1.16457 0.93149,-0.84298 2.53922,-1.32839 4.41605,-1.3333 4.13522,-0.0108 5.45609,2.31623 3.52281,6.20635 -2.11271,4.25116 -7.45305,7.5215 -10.72085,6.56528 z m 5.45243,-3.13641 c 1.17917,-0.60157 3.20276,-2.76176 3.83478,-4.09365 0.51886,-1.0934 0.34443,-2.1102 -0.45848,-2.67257 -0.80441,-0.56344 -2.11913,-0.49126 -2.69773,0.14809 -0.58729,0.64894 -3.29002,6.65413 -3.12152,6.93568 0.21653,0.36182 1.41719,0.20575 2.44295,-0.31755 z m 8.62067,-5.58238 c -0.26767,-0.84333 0.52579,-1.83913 1.46542,-1.83913 0.69451,0 0.78765,0.0916 0.78765,0.77485 0,0.42617 -0.1871,0.96195 -0.41578,1.19063 -0.60122,0.60122 -1.6288,0.53055 -1.83729,-0.12635 z"
         id="path47"
         inkscape:connector-curvature="0" />
    </g>
  </g>
</svg>
